<svg xmlns="http://www.w3.org/2000/svg" height="48" viewBox="0 96 960 960" width="48"><path d="m480 953-49-45Q321.232 805.879 250.116 733.439 179 661 137.5 604.5T80 502q-16-46-16-93 0-95.173 65.205-160.086Q194.409 184 289 184q54 0 103.5 25.5T480 284q43-51 91-75.5T671 184q94.591 0 159.795 64.914Q896 313.827 896 409q0 47-16 93t-57.5 102.5Q781 661 709.884 733.439 638.768 805.879 529 908l-49 45Zm0-97q102.236-93.995 168.618-160.998Q715 628 753.5 577.5t54-90.135q15.5-39.636 15.5-78.484Q823 343 780.5 300t-109.275-43q-50.524 0-94.875 32Q532 321 510 373h-61q-21-51-65.85-83.5-44.851-32.5-94.375-32.5Q222 257 179.5 299.714 137 342.429 137 409.316 137 448 152.5 488t54.5 90.5Q246 629 312 696t168 160Zm0-300Z"/></svg>