<?xml version="1.0" encoding="UTF-8"?>
<svg width="18px" height="18px" viewBox="0 0 18 18" version="1.1" xmlns="http://www.w3.org/2000/svg" xmlns:xlink="http://www.w3.org/1999/xlink">
    <!-- Generator: Sketch 42 (36781) - http://www.bohemiancoding.com/sketch -->
    <title>Shape</title>
    <desc>Created with Sketch.</desc>
    <defs></defs>
    <g id="Page-1" stroke="none" stroke-width="1" fill="none" fill-rule="evenodd">
        <g id="01_01_User_Dashboard" transform="translate(-490.000000, -16.000000)" fill="#2D3640">
            <g id="//Fixed-Header" transform="translate(0.000000, -7.000000)">
                <g id="Menu">
                    <g id="Search" transform="translate(480.000000, 23.000000)">
                        <path d="M17.8260019,0 C13.5107444,0 10,3.51074445 10,7.82600189 C10,12.1412593 13.5107444,15.6520038 17.8260019,15.6520038 C19.4185933,15.6520038 20.9000554,15.1714873 22.1373463,14.3505397 L25.5565266,17.7705025 C25.8625232,18.0764992 26.3579092,18.0764992 26.6631232,17.7705025 L27.7697199,16.6639058 C28.0757166,16.3579092 28.0757166,15.8625232 27.7697199,15.5573092 L24.3497571,12.1373463 C25.1714873,10.9000554 25.6520038,9.41859328 25.6520038,7.82600189 C25.6520038,3.51074445 22.1412593,0 17.8260019,0 Z M17.8260019,14.0868034 C14.3739525,14.0868034 11.5652004,11.2780513 11.5652004,7.82600189 C11.5652004,4.37395246 14.3739525,1.56520038 17.8260019,1.56520038 C21.2780513,1.56520038 24.0868034,4.37395246 24.0868034,7.82600189 C24.0868034,11.2780513 21.2780513,14.0868034 17.8260019,14.0868034 Z" id="Shape"></path>
                    </g>
                </g>
            </g>
        </g>
    </g>
</svg>