<svg xmlns="http://www.w3.org/2000/svg" width="25" height="24" viewBox="0 0 25 24">
    <path fill="#2D3640" fill-rule="nonzero" d="M23.833 0c.6 0 1 .4 1 1v22c0 .6-.4 1-1 1s-1-.4-1-1v-2h-2v2c0 .6-.4 1-1 1h-14c-.6 0-1-.4-1-1v-2h-2v2c0 .6-.4 1-1 1s-1-.4-1-1V1c0-.6.4-1 1-1s1 .4 1 1v2h2V1c0-.6.4-1 1-1h14c.6 0 1 .4 1 1v2h2V1c0-.6.4-1 1-1zm-21 5v2h2V5h-2zm0 4v2h2V9h-2zm2 10v-2h-2v2h2zm0-4v-2h-2v2h2zm18 4v-2h-2v2h2zm0-4v-2h-2v2h2zm0-4V9h-2v2h2zm0-4V5h-2v2h2zm-15-4v8h10V3h-10zm0 10v8h10v-8h-10z"/>
</svg>
