<svg xmlns="http://www.w3.org/2000/svg" width="22" height="22" viewBox="0 0 22 22">
    <path fill="#2D3640" fill-rule="nonzero" d="M5.293 21.707l-5-5a.999.999 0 0 1 0-1.414l2.295-2.295 1.709 1.709 1.414-1.414-1.709-1.709 1.586-1.586 2.709 2.709 1.414-1.414-2.709-2.709 1.586-1.586 1.709 1.709 1.414-1.414-1.709-1.709 1.586-1.586 2.705 2.709 1.415-1.413-2.706-2.71L15.293.293a.999.999 0 0 1 1.414 0l5 5a.999.999 0 0 1 0 1.414l-15 15a.997.997 0 0 1-1.414 0zM3.672 9.086L.293 5.707a.999.999 0 0 1 0-1.414l4-4a.999.999 0 0 1 1.414 0l3.379 3.379-5.414 5.414zm17.035 6.207c.14.14.235.317.273.511l1 5a.999.999 0 0 1-1.176 1.176l-5-1a.991.991 0 0 1-.511-.273l-2.379-2.379 5.414-5.414 2.379 2.379z"/>
</svg>
