<svg xmlns="http://www.w3.org/2000/svg" height="48" viewBox="0 96 960 960" width="48"><path d="M480 992q-86.474 0-161.737-33Q243 926 186.5 869.5T97 737.737Q64 662.474 64 576q0-86 33-161.5t89.5-132Q243 226 318.263 193T480 160q86 0 161.5 33t132 89.5Q830 339 863 414.5T896 576v60q0 62-42.5 101T753 776q-36 0-68.5-16.5T632 713q-28 32-69 47.5T480 776q-83.62 0-142.31-58.19T279 576q0-84.62 58.69-143.31T480 374q83.62 0 142.31 58.69T681 576v60q0 27 21.2 47t50.8 20q27.6 0 48.8-20 21.2-20 21.2-47v-60q0-143-100-243T480 233q-143 0-243 100T137 576q0 143 100 243t242.77 100H696v73H480Zm.118-289Q534 703 571 666.382q37-36.617 37-90.5Q608 522 570.882 484.5q-37.117-37.5-91-37.5Q426 447 389 484.618q-37 37.617-37 91.5Q352 630 389.118 666.5q37.117 36.5 91 36.5Z"/></svg>